STARTFONT 2.1
FONT -FontForge-Fredoka One-Book-R-Normal--12-120-72-72-P-69-ISO10646-1
SIZE 12 72 72
FONTBOUNDINGBOX 16 15 -2 -3
COMMENT "Generated by fontforge, http://fontforge.sourceforge.net"
COMMENT "Copyright (c) 2011 Milena B Brandao (milenabbrandao@gmail.com), with Reserved Font Name "Fredoka""
STARTPROPERTIES 39
FOUNDRY "FontForge"
FAMILY_NAME "Fredoka One"
WEIGHT_NAME "Book"
SLANT "R"
SETWIDTH_NAME "Normal"
ADD_STYLE_NAME ""
PIXEL_SIZE 12
POINT_SIZE 120
RESOLUTION_X 72
RESOLUTION_Y 72
SPACING "P"
AVERAGE_WIDTH 69
CHARSET_REGISTRY "ISO10646"
CHARSET_ENCODING "1"
FONTNAME_REGISTRY ""
CHARSET_COLLECTIONS "ISO10646-1"
FONT_NAME "FredokaOne-Regular"
FACE_NAME "Fredoka One"
COPYRIGHT "Copyright (c) 2011 Milena B Brandao (milenabbrandao@gmail.com), with Reserved Font Name "Fredoka""
FONT_VERSION "1.001"
FONT_ASCENT 10
FONT_DESCENT 2
UNDERLINE_POSITION -1
UNDERLINE_THICKNESS 1
X_HEIGHT 5
CAP_HEIGHT 8
RAW_ASCENT 800
RAW_DESCENT 200
NORM_SPACE 3
RELATIVE_WEIGHT 40
RELATIVE_SETWIDTH 50
SUPERSCRIPT_X 0
SUPERSCRIPT_Y 5
SUPERSCRIPT_SIZE 7
SUBSCRIPT_X 0
SUBSCRIPT_Y 1
SUBSCRIPT_SIZE 7
AVG_LOWERCASE_WIDTH 67
AVG_UPPERCASE_WIDTH 82
ENDPROPERTIES
CHARS 235
STARTCHAR space
ENCODING 32
SWIDTH 253 0
DWIDTH 3 0
BBX 1 1 0 0
BITMAP
00
ENDCHAR
STARTCHAR exclam
ENCODING 33
SWIDTH 267 0
DWIDTH 3 0
BBX 3 9 0 0
BITMAP
60
60
60
60
60
60
00
E0
60
ENDCHAR
STARTCHAR quotedbl
ENCODING 34
SWIDTH 429 0
DWIDTH 5 0
BBX 5 4 0 5
BITMAP
D8
D8
D8
58
ENDCHAR
STARTCHAR numbersign
ENCODING 35
SWIDTH 749 0
DWIDTH 9 0
BBX 9 9 0 0
BITMAP
1300
1300
3300
7F80
3200
7F00
FF00
2600
6600
ENDCHAR
STARTCHAR dollar
ENCODING 36
SWIDTH 475 0
DWIDTH 6 0
BBX 5 10 0 -1
BITMAP
30
70
78
C0
78
18
C8
78
30
30
ENDCHAR
STARTCHAR percent
ENCODING 37
SWIDTH 838 0
DWIDTH 10 0
BBX 10 9 0 0
BITMAP
7100
7200
DA00
7400
2C00
0B80
1AC0
12C0
3380
ENDCHAR
STARTCHAR ampersand
ENCODING 38
SWIDTH 748 0
DWIDTH 9 0
BBX 9 9 0 0
BITMAP
3C00
6C00
6C00
7C00
7000
7B00
DF00
FF80
7F80
ENDCHAR
STARTCHAR quotesingle
ENCODING 39
SWIDTH 208 0
DWIDTH 3 0
BBX 2 4 0 5
BITMAP
C0
C0
C0
40
ENDCHAR
STARTCHAR parenleft
ENCODING 40
SWIDTH 384 0
DWIDTH 5 0
BBX 4 12 0 -3
BITMAP
30
60
60
40
C0
C0
C0
40
40
60
30
10
ENDCHAR
STARTCHAR parenright
ENCODING 41
SWIDTH 384 0
DWIDTH 5 0
BBX 4 12 0 -3
BITMAP
E0
60
30
30
30
30
30
30
30
30
E0
C0
ENDCHAR
STARTCHAR asterisk
ENCODING 42
SWIDTH 503 0
DWIDTH 6 0
BBX 6 6 0 3
BITMAP
30
78
FC
78
78
28
ENDCHAR
STARTCHAR plus
ENCODING 43
SWIDTH 527 0
DWIDTH 6 0
BBX 6 6 0 0
BITMAP
30
30
FC
7C
30
10
ENDCHAR
STARTCHAR comma
ENCODING 44
SWIDTH 238 0
DWIDTH 3 0
BBX 3 4 0 -2
BITMAP
E0
E0
40
C0
ENDCHAR
STARTCHAR hyphen
ENCODING 45
SWIDTH 433 0
DWIDTH 5 0
BBX 5 2 0 2
BITMAP
70
F8
ENDCHAR
STARTCHAR period
ENCODING 46
SWIDTH 237 0
DWIDTH 3 0
BBX 3 2 0 0
BITMAP
E0
C0
ENDCHAR
STARTCHAR slash
ENCODING 47
SWIDTH 526 0
DWIDTH 6 0
BBX 6 10 0 -1
BITMAP
0C
0C
18
18
30
30
60
60
C0
40
ENDCHAR
STARTCHAR zero
ENCODING 48
SWIDTH 608 0
DWIDTH 7 0
BBX 7 9 0 0
BITMAP
38
7C
6E
E6
C6
C6
66
7C
3C
ENDCHAR
STARTCHAR one
ENCODING 49
SWIDTH 407 0
DWIDTH 5 0
BBX 4 9 0 0
BITMAP
10
70
F0
F0
30
30
30
30
30
ENDCHAR
STARTCHAR two
ENCODING 50
SWIDTH 609 0
DWIDTH 7 0
BBX 7 9 0 0
BITMAP
38
7C
EE
C6
0E
3C
78
FE
FE
ENDCHAR
STARTCHAR three
ENCODING 51
SWIDTH 608 0
DWIDTH 7 0
BBX 7 9 0 0
BITMAP
38
7C
66
1E
1C
0E
C6
7E
7C
ENDCHAR
STARTCHAR four
ENCODING 52
SWIDTH 592 0
DWIDTH 7 0
BBX 7 9 0 0
BITMAP
64
6E
6E
6E
FE
FE
0E
0E
06
ENDCHAR
STARTCHAR five
ENCODING 53
SWIDTH 530 0
DWIDTH 6 0
BBX 6 9 0 0
BITMAP
7C
7C
60
F0
FC
4C
4C
FC
78
ENDCHAR
STARTCHAR six
ENCODING 54
SWIDTH 560 0
DWIDTH 7 0
BBX 6 9 0 0
BITMAP
1C
3C
70
60
FC
FC
CC
7C
78
ENDCHAR
STARTCHAR seven
ENCODING 55
SWIDTH 561 0
DWIDTH 7 0
BBX 7 9 0 0
BITMAP
FC
FE
0C
1C
18
38
30
70
70
ENDCHAR
STARTCHAR eight
ENCODING 56
SWIDTH 582 0
DWIDTH 7 0
BBX 7 9 0 0
BITMAP
38
7C
6C
7C
7C
EE
C6
7C
7C
ENDCHAR
STARTCHAR nine
ENCODING 57
SWIDTH 560 0
DWIDTH 7 0
BBX 6 9 0 0
BITMAP
38
7C
CC
EC
7C
0C
1C
78
70
ENDCHAR
STARTCHAR colon
ENCODING 58
SWIDTH 238 0
DWIDTH 3 0
BBX 3 6 0 0
BITMAP
C0
E0
00
00
E0
C0
ENDCHAR
STARTCHAR semicolon
ENCODING 59
SWIDTH 237 0
DWIDTH 3 0
BBX 3 8 0 -2
BITMAP
C0
E0
00
00
E0
E0
40
C0
ENDCHAR
STARTCHAR less
ENCODING 60
SWIDTH 627 0
DWIDTH 8 0
BBX 7 8 0 0
BITMAP
06
1E
38
F0
F0
3C
0E
06
ENDCHAR
STARTCHAR equal
ENCODING 61
SWIDTH 478 0
DWIDTH 6 0
BBX 5 5 0 0
BITMAP
F8
F8
00
F8
78
ENDCHAR
STARTCHAR greater
ENCODING 62
SWIDTH 627 0
DWIDTH 8 0
BBX 7 8 0 0
BITMAP
E0
70
3C
0E
1E
3C
F0
C0
ENDCHAR
STARTCHAR question
ENCODING 63
SWIDTH 512 0
DWIDTH 6 0
BBX 6 9 0 0
BITMAP
78
FC
CC
1C
38
30
00
30
30
ENDCHAR
STARTCHAR at
ENCODING 64
SWIDTH 908 0
DWIDTH 11 0
BBX 11 10 0 -2
BITMAP
1F00
3B80
6FC0
DF40
D260
DE60
4E40
63C0
3C00
0800
ENDCHAR
STARTCHAR A
ENCODING 65
SWIDTH 765 0
DWIDTH 9 0
BBX 9 9 0 0
BITMAP
0800
1C00
1C00
3E00
3600
7F00
7F00
E380
C180
ENDCHAR
STARTCHAR B
ENCODING 66
SWIDTH 646 0
DWIDTH 8 0
BBX 7 9 0 0
BITMAP
7C
FE
E6
E6
FE
E6
E6
FE
7C
ENDCHAR
STARTCHAR C
ENCODING 67
SWIDTH 679 0
DWIDTH 8 0
BBX 8 9 0 0
BITMAP
1E
3F
72
E0
C0
E0
62
7F
1E
ENDCHAR
STARTCHAR D
ENCODING 68
SWIDTH 704 0
DWIDTH 8 0
BBX 8 9 0 0
BITMAP
78
FE
E7
E3
E3
E3
E7
FE
7C
ENDCHAR
STARTCHAR E
ENCODING 69
SWIDTH 638 0
DWIDTH 8 0
BBX 7 9 0 0
BITMAP
7E
FE
E0
E0
FC
FC
E0
FE
7E
ENDCHAR
STARTCHAR F
ENCODING 70
SWIDTH 637 0
DWIDTH 8 0
BBX 7 9 0 0
BITMAP
7E
FE
E0
E0
FC
FC
E0
E0
60
ENDCHAR
STARTCHAR G
ENCODING 71
SWIDTH 714 0
DWIDTH 9 0
BBX 8 9 0 0
BITMAP
1E
7F
72
E0
CF
E3
63
7F
1E
ENDCHAR
STARTCHAR H
ENCODING 72
SWIDTH 699 0
DWIDTH 8 0
BBX 8 9 0 0
BITMAP
43
E3
E3
E3
FF
E3
E3
E3
63
ENDCHAR
STARTCHAR I
ENCODING 73
SWIDTH 257 0
DWIDTH 3 0
BBX 3 9 0 0
BITMAP
40
E0
E0
E0
E0
E0
E0
E0
60
ENDCHAR
STARTCHAR J
ENCODING 74
SWIDTH 549 0
DWIDTH 7 0
BBX 6 9 0 0
BITMAP
0C
0C
0C
0C
0C
0C
4C
FC
78
ENDCHAR
STARTCHAR K
ENCODING 75
SWIDTH 639 0
DWIDTH 8 0
BBX 7 9 0 0
BITMAP
46
EE
EC
F8
F0
F8
FC
EE
66
ENDCHAR
STARTCHAR L
ENCODING 76
SWIDTH 587 0
DWIDTH 7 0
BBX 7 9 0 0
BITMAP
40
E0
E0
E0
E0
E0
E0
FE
7E
ENDCHAR
STARTCHAR M
ENCODING 77
SWIDTH 870 0
DWIDTH 10 0
BBX 10 9 0 0
BITMAP
40C0
E1C0
F3C0
FBC0
FEC0
EEC0
E4C0
E0C0
60C0
ENDCHAR
STARTCHAR N
ENCODING 78
SWIDTH 720 0
DWIDTH 9 0
BBX 8 9 0 0
BITMAP
43
E3
F3
FB
FB
EF
EF
E7
63
ENDCHAR
STARTCHAR O
ENCODING 79
SWIDTH 775 0
DWIDTH 9 0
BBX 9 9 0 0
BITMAP
1C00
7F00
7380
E180
C180
E180
6380
7F00
3E00
ENDCHAR
STARTCHAR P
ENCODING 80
SWIDTH 632 0
DWIDTH 8 0
BBX 7 9 0 0
BITMAP
78
FE
E6
E6
FE
FE
F8
E0
60
ENDCHAR
STARTCHAR Q
ENCODING 81
SWIDTH 830 0
DWIDTH 10 0
BBX 10 9 0 0
BITMAP
1C00
7F00
7380
E180
C180
E180
6380
7FC0
3E80
ENDCHAR
STARTCHAR R
ENCODING 82
SWIDTH 631 0
DWIDTH 8 0
BBX 7 9 0 0
BITMAP
78
FE
E6
E6
FE
FE
FE
E6
66
ENDCHAR
STARTCHAR S
ENCODING 83
SWIDTH 583 0
DWIDTH 7 0
BBX 7 9 0 0
BITMAP
38
7C
E4
60
7C
1E
46
FC
7C
ENDCHAR
STARTCHAR T
ENCODING 84
SWIDTH 731 0
DWIDTH 9 0
BBX 9 9 0 0
BITMAP
FF80
FF80
1800
1800
1800
1800
1800
1800
1800
ENDCHAR
STARTCHAR U
ENCODING 85
SWIDTH 726 0
DWIDTH 9 0
BBX 8 9 0 0
BITMAP
43
E3
E3
E3
E3
63
63
7E
3C
ENDCHAR
STARTCHAR V
ENCODING 86
SWIDTH 783 0
DWIDTH 9 0
BBX 9 9 0 0
BITMAP
4180
E180
6380
7300
3700
3600
1E00
1C00
0C00
ENDCHAR
STARTCHAR W
ENCODING 87
SWIDTH 999 0
DWIDTH 12 0
BBX 12 9 0 0
BITMAP
4620
E670
6F60
6F60
6FE0
3FC0
39C0
39C0
1980
ENDCHAR
STARTCHAR X
ENCODING 88
SWIDTH 741 0
DWIDTH 9 0
BBX 9 9 0 0
BITMAP
4100
E380
7700
3E00
1C00
3E00
7700
E380
C100
ENDCHAR
STARTCHAR Y
ENCODING 89
SWIDTH 686 0
DWIDTH 8 0
BBX 8 9 0 0
BITMAP
43
E7
66
3E
3C
18
18
18
18
ENDCHAR
STARTCHAR Z
ENCODING 90
SWIDTH 643 0
DWIDTH 8 0
BBX 7 9 0 0
BITMAP
FE
FE
0E
1C
18
30
70
FE
FE
ENDCHAR
STARTCHAR bracketleft
ENCODING 91
SWIDTH 348 0
DWIDTH 4 0
BBX 4 12 0 -3
BITMAP
F0
C0
C0
C0
C0
C0
C0
C0
C0
C0
F0
70
ENDCHAR
STARTCHAR backslash
ENCODING 92
SWIDTH 528 0
DWIDTH 6 0
BBX 6 10 0 -1
BITMAP
C0
60
60
30
30
38
18
1C
0C
08
ENDCHAR
STARTCHAR bracketright
ENCODING 93
SWIDTH 348 0
DWIDTH 4 0
BBX 4 12 0 -3
BITMAP
F0
30
30
30
30
30
30
30
30
30
F0
E0
ENDCHAR
STARTCHAR asciicircum
ENCODING 94
SWIDTH 526 0
DWIDTH 6 0
BBX 6 4 0 3
BITMAP
10
30
78
CC
ENDCHAR
STARTCHAR underscore
ENCODING 95
SWIDTH 826 0
DWIDTH 10 0
BBX 10 2 0 -3
BITMAP
FFC0
FFC0
ENDCHAR
STARTCHAR grave
ENCODING 96
SWIDTH 482 0
DWIDTH 6 0
BBX 4 2 1 7
BITMAP
E0
70
ENDCHAR
STARTCHAR a
ENCODING 97
SWIDTH 596 0
DWIDTH 7 0
BBX 7 6 0 0
BITMAP
7E
7E
CE
EE
7E
36
ENDCHAR
STARTCHAR b
ENCODING 98
SWIDTH 592 0
DWIDTH 7 0
BBX 7 9 0 0
BITMAP
E0
E0
E0
FC
FE
E6
EE
FC
78
ENDCHAR
STARTCHAR c
ENCODING 99
SWIDTH 517 0
DWIDTH 6 0
BBX 6 6 0 0
BITMAP
7C
7C
C0
E8
7C
38
ENDCHAR
STARTCHAR d
ENCODING 100
SWIDTH 598 0
DWIDTH 7 0
BBX 7 9 0 0
BITMAP
06
06
06
7E
7E
E6
EE
7E
3E
ENDCHAR
STARTCHAR e
ENCODING 101
SWIDTH 573 0
DWIDTH 7 0
BBX 7 6 0 0
BITMAP
7C
6E
FE
FC
7C
3C
ENDCHAR
STARTCHAR f
ENCODING 102
SWIDTH 450 0
DWIDTH 5 0
BBX 5 9 0 0
BITMAP
38
78
60
F8
F8
60
60
60
60
ENDCHAR
STARTCHAR g
ENCODING 103
SWIDTH 585 0
DWIDTH 7 0
BBX 7 9 0 -3
BITMAP
7E
7E
CE
EE
7E
3E
4C
7C
38
ENDCHAR
STARTCHAR h
ENCODING 104
SWIDTH 605 0
DWIDTH 7 0
BBX 7 9 0 0
BITMAP
E0
E0
E0
FC
FE
E6
E6
E6
66
ENDCHAR
STARTCHAR i
ENCODING 105
SWIDTH 255 0
DWIDTH 3 0
BBX 3 9 0 0
BITMAP
E0
40
00
E0
E0
E0
E0
E0
60
ENDCHAR
STARTCHAR j
ENCODING 106
SWIDTH 252 0
DWIDTH 3 0
BBX 5 12 -2 -3
BITMAP
38
10
00
38
38
38
38
38
38
30
F0
60
ENDCHAR
STARTCHAR k
ENCODING 107
SWIDTH 536 0
DWIDTH 6 0
BBX 6 9 0 0
BITMAP
E0
E0
E0
EC
FC
F8
F8
FC
6C
ENDCHAR
STARTCHAR l
ENCODING 108
SWIDTH 327 0
DWIDTH 4 0
BBX 4 9 0 0
BITMAP
E0
E0
E0
E0
E0
E0
E0
70
70
ENDCHAR
STARTCHAR m
ENCODING 109
SWIDTH 851 0
DWIDTH 10 0
BBX 10 6 0 0
BITMAP
FF80
FFC0
ECC0
ECC0
ECC0
6CC0
ENDCHAR
STARTCHAR n
ENCODING 110
SWIDTH 606 0
DWIDTH 7 0
BBX 7 6 0 0
BITMAP
FC
FE
E6
E6
E6
66
ENDCHAR
STARTCHAR o
ENCODING 111
SWIDTH 600 0
DWIDTH 7 0
BBX 7 6 0 0
BITMAP
7C
7E
C6
E6
7C
3C
ENDCHAR
STARTCHAR p
ENCODING 112
SWIDTH 582 0
DWIDTH 7 0
BBX 7 9 0 -3
BITMAP
FC
FC
E6
EE
FC
F8
E0
E0
40
ENDCHAR
STARTCHAR q
ENCODING 113
SWIDTH 582 0
DWIDTH 7 0
BBX 7 9 0 -3
BITMAP
7C
7E
CE
EE
7E
3E
0E
0E
04
ENDCHAR
STARTCHAR r
ENCODING 114
SWIDTH 457 0
DWIDTH 5 0
BBX 5 6 0 0
BITMAP
F8
F8
E0
E0
E0
60
ENDCHAR
STARTCHAR s
ENCODING 115
SWIDTH 489 0
DWIDTH 6 0
BBX 6 6 0 0
BITMAP
78
48
78
3C
FC
78
ENDCHAR
STARTCHAR t
ENCODING 116
SWIDTH 449 0
DWIDTH 5 0
BBX 5 8 0 0
BITMAP
60
60
F8
F8
60
60
78
38
ENDCHAR
STARTCHAR u
ENCODING 117
SWIDTH 606 0
DWIDTH 7 0
BBX 7 6 0 0
BITMAP
E6
E6
E6
6E
7E
36
ENDCHAR
STARTCHAR v
ENCODING 118
SWIDTH 638 0
DWIDTH 8 0
BBX 7 6 0 0
BITMAP
C6
66
6E
3C
38
18
ENDCHAR
STARTCHAR w
ENCODING 119
SWIDTH 793 0
DWIDTH 10 0
BBX 9 6 0 0
BITMAP
CD80
7D80
7F80
7F00
3700
3200
ENDCHAR
STARTCHAR x
ENCODING 120
SWIDTH 567 0
DWIDTH 7 0
BBX 7 6 0 0
BITMAP
EE
7C
38
7C
EE
C4
ENDCHAR
STARTCHAR y
ENCODING 121
SWIDTH 604 0
DWIDTH 7 0
BBX 7 9 0 -3
BITMAP
C6
6E
7C
3C
38
18
30
30
30
ENDCHAR
STARTCHAR z
ENCODING 122
SWIDTH 586 0
DWIDTH 7 0
BBX 7 6 0 0
BITMAP
7E
7C
18
70
FE
FE
ENDCHAR
STARTCHAR braceleft
ENCODING 123
SWIDTH 381 0
DWIDTH 5 0
BBX 4 12 0 -3
BITMAP
30
20
20
20
20
E0
E0
20
20
20
30
10
ENDCHAR
STARTCHAR bar
ENCODING 124
SWIDTH 217 0
DWIDTH 3 0
BBX 2 12 0 -3
BITMAP
C0
C0
C0
C0
C0
C0
C0
C0
C0
C0
C0
40
ENDCHAR
STARTCHAR braceright
ENCODING 125
SWIDTH 381 0
DWIDTH 5 0
BBX 4 12 0 -3
BITMAP
E0
60
60
60
60
30
70
60
60
60
E0
C0
ENDCHAR
STARTCHAR asciitilde
ENCODING 126
SWIDTH 651 0
DWIDTH 8 0
BBX 6 3 1 2
BITMAP
48
FC
B8
ENDCHAR
STARTCHAR exclamdown
ENCODING 161
SWIDTH 268 0
DWIDTH 3 0
BBX 3 9 0 -3
BITMAP
E0
60
00
60
60
60
60
60
60
ENDCHAR
STARTCHAR cent
ENCODING 162
SWIDTH 434 0
DWIDTH 5 0
BBX 5 9 0 -1
BITMAP
30
30
78
F8
C0
F8
78
30
30
ENDCHAR
STARTCHAR sterling
ENCODING 163
SWIDTH 675 0
DWIDTH 8 0
BBX 8 9 0 0
BITMAP
1C
3F
72
60
F8
78
30
7F
7F
ENDCHAR
STARTCHAR currency
ENCODING 164
SWIDTH 677 0
DWIDTH 8 0
BBX 8 9 0 0
BITMAP
C3
7E
7E
43
43
62
7E
7F
C3
ENDCHAR
STARTCHAR yen
ENCODING 165
SWIDTH 677 0
DWIDTH 8 0
BBX 8 9 0 0
BITMAP
42
E7
66
3E
3C
7E
18
7E
18
ENDCHAR
STARTCHAR brokenbar
ENCODING 166
SWIDTH 215 0
DWIDTH 3 0
BBX 2 12 0 -3
BITMAP
C0
C0
C0
C0
C0
00
40
C0
C0
C0
C0
40
ENDCHAR
STARTCHAR section
ENCODING 167
SWIDTH 560 0
DWIDTH 7 0
BBX 6 12 0 -3
BITMAP
7C
7C
C0
78
7C
CC
7C
7C
0C
EC
7C
38
ENDCHAR
STARTCHAR dieresis
ENCODING 168
SWIDTH 489 0
DWIDTH 6 0
BBX 6 2 0 7
BITMAP
EC
6C
ENDCHAR
STARTCHAR copyright
ENCODING 169
SWIDTH 711 0
DWIDTH 9 0
BBX 8 8 0 1
BITMAP
3E
43
FD
A1
A1
5D
43
3C
ENDCHAR
STARTCHAR ordfeminine
ENCODING 170
SWIDTH 445 0
DWIDTH 5 0
BBX 5 5 0 4
BITMAP
28
78
D8
F8
78
ENDCHAR
STARTCHAR guillemotleft
ENCODING 171
SWIDTH 668 0
DWIDTH 8 0
BBX 8 6 0 0
BITMAP
33
76
EC
EE
77
33
ENDCHAR
STARTCHAR logicalnot
ENCODING 172
SWIDTH 526 0
DWIDTH 6 0
BBX 6 4 0 1
BITMAP
FC
FC
04
04
ENDCHAR
STARTCHAR registered
ENCODING 174
SWIDTH 711 0
DWIDTH 9 0
BBX 8 8 0 1
BITMAP
3E
43
DD
95
9D
55
43
3C
ENDCHAR
STARTCHAR degree
ENCODING 176
SWIDTH 407 0
DWIDTH 5 0
BBX 5 4 0 5
BITMAP
70
D8
D8
70
ENDCHAR
STARTCHAR plusminus
ENCODING 177
SWIDTH 505 0
DWIDTH 6 0
BBX 6 7 0 0
BITMAP
10
30
FC
7C
30
78
FC
ENDCHAR
STARTCHAR twosuperior
ENCODING 178
SWIDTH 455 0
DWIDTH 5 0
BBX 5 6 0 3
BITMAP
70
F8
D8
38
70
F8
ENDCHAR
STARTCHAR threesuperior
ENCODING 179
SWIDTH 457 0
DWIDTH 5 0
BBX 5 7 0 2
BITMAP
70
78
18
38
D8
78
20
ENDCHAR
STARTCHAR acute
ENCODING 180
SWIDTH 605 0
DWIDTH 7 0
BBX 3 2 2 7
BITMAP
E0
E0
ENDCHAR
STARTCHAR mu
ENCODING 181
SWIDTH 601 0
DWIDTH 7 0
BBX 7 9 0 -3
BITMAP
E6
E6
E6
EE
FE
F6
E0
E0
40
ENDCHAR
STARTCHAR paragraph
ENCODING 182
SWIDTH 614 0
DWIDTH 7 0
BBX 7 10 0 -3
BITMAP
7E
F6
F6
76
36
36
36
36
36
16
ENDCHAR
STARTCHAR periodcentered
ENCODING 183
SWIDTH 237 0
DWIDTH 3 0
BBX 3 2 0 3
BITMAP
C0
E0
ENDCHAR
STARTCHAR cedilla
ENCODING 184
SWIDTH 559 0
DWIDTH 7 0
BBX 2 2 2 -2
BITMAP
C0
C0
ENDCHAR
STARTCHAR onesuperior
ENCODING 185
SWIDTH 321 0
DWIDTH 4 0
BBX 3 6 0 3
BITMAP
20
60
E0
20
20
20
ENDCHAR
STARTCHAR ordmasculine
ENCODING 186
SWIDTH 439 0
DWIDTH 5 0
BBX 5 5 0 4
BITMAP
20
78
D8
D8
70
ENDCHAR
STARTCHAR guillemotright
ENCODING 187
SWIDTH 669 0
DWIDTH 8 0
BBX 8 6 0 0
BITMAP
CC
6E
37
77
EE
CC
ENDCHAR
STARTCHAR onequarter
ENCODING 188
SWIDTH 786 0
DWIDTH 9 0
BBX 8 9 1 0
BITMAP
C4
C8
48
50
57
2F
2F
4F
C3
ENDCHAR
STARTCHAR onehalf
ENCODING 189
SWIDTH 804 0
DWIDTH 10 0
BBX 8 9 1 0
BITMAP
C4
C8
48
50
5E
2B
23
4E
CF
ENDCHAR
STARTCHAR threequarters
ENCODING 190
SWIDTH 842 0
DWIDTH 10 0
BBX 8 9 1 0
BITMAP
E6
A4
6C
A8
FF
15
27
27
41
ENDCHAR
STARTCHAR questiondown
ENCODING 191
SWIDTH 511 0
DWIDTH 6 0
BBX 6 9 0 -3
BITMAP
30
30
00
30
70
C0
CC
78
30
ENDCHAR
STARTCHAR Agrave
ENCODING 192
SWIDTH 765 0
DWIDTH 9 0
BBX 9 12 0 0
BITMAP
1000
3C00
0C00
0800
1C00
1C00
3E00
3600
7F00
7F00
E380
C180
ENDCHAR
STARTCHAR Aacute
ENCODING 193
SWIDTH 765 0
DWIDTH 9 0
BBX 9 12 0 0
BITMAP
0400
1E00
1800
0800
1C00
1C00
3E00
3600
7F00
7F00
E380
C180
ENDCHAR
STARTCHAR Acircumflex
ENCODING 194
SWIDTH 765 0
DWIDTH 9 0
BBX 9 12 0 0
BITMAP
0800
3E00
1200
0800
1C00
1C00
3E00
3600
7F00
7F00
E380
C180
ENDCHAR
STARTCHAR Atilde
ENCODING 195
SWIDTH 765 0
DWIDTH 9 0
BBX 9 12 0 0
BITMAP
1A00
3E00
1400
0800
1C00
1C00
3E00
3600
7F00
7F00
E380
C180
ENDCHAR
STARTCHAR Adieresis
ENCODING 196
SWIDTH 765 0
DWIDTH 9 0
BBX 9 12 0 0
BITMAP
3600
3600
0000
0800
1C00
1C00
3E00
3600
7F00
7F00
E380
C180
ENDCHAR
STARTCHAR Aring
ENCODING 197
SWIDTH 765 0
DWIDTH 9 0
BBX 9 11 0 0
BITMAP
1C00
1400
1C00
1C00
1C00
3E00
3600
7F00
7F00
E380
C180
ENDCHAR
STARTCHAR AE
ENCODING 198
SWIDTH 1148 0
DWIDTH 14 0
BBX 13 9 0 0
BITMAP
03F8
03F8
0780
0F80
1DF0
3FF0
7F80
E1F8
C1F8
ENDCHAR
STARTCHAR Ccedilla
ENCODING 199
SWIDTH 679 0
DWIDTH 8 0
BBX 8 11 0 -2
BITMAP
1E
7F
72
E0
C0
E0
62
7F
1E
0C
0C
ENDCHAR
STARTCHAR Egrave
ENCODING 200
SWIDTH 638 0
DWIDTH 8 0
BBX 7 12 0 0
BITMAP
20
3C
0C
7E
FE
E0
E0
FC
FC
E0
FE
7E
ENDCHAR
STARTCHAR Eacute
ENCODING 201
SWIDTH 638 0
DWIDTH 8 0
BBX 7 12 0 0
BITMAP
04
3C
10
7E
FE
E0
E0
FC
FC
E0
FE
7E
ENDCHAR
STARTCHAR Ecircumflex
ENCODING 202
SWIDTH 638 0
DWIDTH 8 0
BBX 7 12 0 0
BITMAP
18
7C
24
7E
FE
E0
E0
FC
FC
E0
FE
7E
ENDCHAR
STARTCHAR Edieresis
ENCODING 203
SWIDTH 638 0
DWIDTH 8 0
BBX 7 12 0 0
BITMAP
24
6E
00
7E
FE
E0
E0
FC
FC
E0
FE
7E
ENDCHAR
STARTCHAR Igrave
ENCODING 204
SWIDTH 267 0
DWIDTH 3 0
BBX 4 12 -1 0
BITMAP
40
F0
30
30
30
30
30
30
30
30
30
30
ENDCHAR
STARTCHAR Iacute
ENCODING 205
SWIDTH 269 0
DWIDTH 3 0
BBX 4 12 0 0
BITMAP
20
F0
40
60
60
60
60
60
60
60
60
60
ENDCHAR
STARTCHAR Icircumflex
ENCODING 206
SWIDTH 270 0
DWIDTH 3 0
BBX 5 12 -1 0
BITMAP
20
F8
48
30
30
30
30
30
30
30
30
30
ENDCHAR
STARTCHAR Idieresis
ENCODING 207
SWIDTH 268 0
DWIDTH 3 0
BBX 5 12 -1 0
BITMAP
D8
D8
00
30
30
30
30
30
30
30
30
30
ENDCHAR
STARTCHAR Eth
ENCODING 208
SWIDTH 775 0
DWIDTH 9 0
BBX 9 9 0 0
BITMAP
7C00
7F00
6700
6180
F180
6180
6380
7F00
7E00
ENDCHAR
STARTCHAR Ntilde
ENCODING 209
SWIDTH 720 0
DWIDTH 9 0
BBX 8 12 0 0
BITMAP
14
3E
24
43
E3
F3
FB
FB
EF
EF
E7
63
ENDCHAR
STARTCHAR Ograve
ENCODING 210
SWIDTH 775 0
DWIDTH 9 0
BBX 9 12 0 0
BITMAP
1000
1C00
0C00
1C00
7F00
7380
E180
C180
E180
6380
7F00
3E00
ENDCHAR
STARTCHAR Oacute
ENCODING 211
SWIDTH 775 0
DWIDTH 9 0
BBX 9 12 0 0
BITMAP
0400
1E00
1800
1C00
7F00
7380
E180
C180
E180
6380
7F00
3E00
ENDCHAR
STARTCHAR Ocircumflex
ENCODING 212
SWIDTH 775 0
DWIDTH 9 0
BBX 9 12 0 0
BITMAP
0800
3E00
1200
1C00
7F00
7380
E180
C180
E180
6380
7F00
3E00
ENDCHAR
STARTCHAR Otilde
ENCODING 213
SWIDTH 775 0
DWIDTH 9 0
BBX 9 12 0 0
BITMAP
1A00
1E00
1400
1C00
7F00
7380
E180
C180
E180
6380
7F00
3E00
ENDCHAR
STARTCHAR Odieresis
ENCODING 214
SWIDTH 775 0
DWIDTH 9 0
BBX 9 12 0 0
BITMAP
3600
3600
0000
1C00
7F00
7380
E180
C180
E180
6380
7F00
3E00
ENDCHAR
STARTCHAR multiply
ENCODING 215
SWIDTH 521 0
DWIDTH 6 0
BBX 6 6 0 0
BITMAP
4C
FC
78
78
FC
48
ENDCHAR
STARTCHAR Oslash
ENCODING 216
SWIDTH 775 0
DWIDTH 9 0
BBX 9 10 0 -1
BITMAP
1F00
7F00
7780
ED80
CD80
F980
7B80
7F00
3E00
2000
ENDCHAR
STARTCHAR Ugrave
ENCODING 217
SWIDTH 726 0
DWIDTH 9 0
BBX 8 12 0 0
BITMAP
20
38
18
43
E3
E3
E3
E3
63
63
7E
3C
ENDCHAR
STARTCHAR Uacute
ENCODING 218
SWIDTH 726 0
DWIDTH 9 0
BBX 8 12 0 0
BITMAP
04
1E
18
43
E3
E3
E3
E3
63
63
7E
3C
ENDCHAR
STARTCHAR Ucircumflex
ENCODING 219
SWIDTH 726 0
DWIDTH 9 0
BBX 8 12 0 0
BITMAP
08
3E
14
43
E3
E3
E3
E3
63
63
7E
3C
ENDCHAR
STARTCHAR Udieresis
ENCODING 220
SWIDTH 726 0
DWIDTH 9 0
BBX 8 12 0 0
BITMAP
36
36
00
43
E3
E3
E3
E3
63
63
7E
3C
ENDCHAR
STARTCHAR Yacute
ENCODING 221
SWIDTH 686 0
DWIDTH 8 0
BBX 8 12 0 0
BITMAP
04
1C
10
43
E7
66
3E
3C
18
18
18
18
ENDCHAR
STARTCHAR Thorn
ENCODING 222
SWIDTH 634 0
DWIDTH 8 0
BBX 7 9 0 0
BITMAP
40
F8
FE
FE
E6
E6
FE
F8
60
ENDCHAR
STARTCHAR germandbls
ENCODING 223
SWIDTH 633 0
DWIDTH 8 0
BBX 7 9 0 0
BITMAP
7C
7C
EC
F8
FC
EE
E6
FE
FE
ENDCHAR
STARTCHAR agrave
ENCODING 224
SWIDTH 596 0
DWIDTH 7 0
BBX 7 9 0 0
BITMAP
3C
18
00
7E
7E
CE
EE
7E
36
ENDCHAR
STARTCHAR aacute
ENCODING 225
SWIDTH 596 0
DWIDTH 7 0
BBX 7 9 0 0
BITMAP
3C
38
00
7E
7E
CE
EE
7E
36
ENDCHAR
STARTCHAR acircumflex
ENCODING 226
SWIDTH 596 0
DWIDTH 7 0
BBX 7 9 0 0
BITMAP
3C
3C
00
7E
7E
CE
EE
7E
36
ENDCHAR
STARTCHAR atilde
ENCODING 227
SWIDTH 596 0
DWIDTH 7 0
BBX 7 9 0 0
BITMAP
3C
6C
00
7E
7E
CE
EE
7E
36
ENDCHAR
STARTCHAR adieresis
ENCODING 228
SWIDTH 596 0
DWIDTH 7 0
BBX 7 9 0 0
BITMAP
6E
64
00
7E
7E
CE
EE
7E
36
ENDCHAR
STARTCHAR aring
ENCODING 229
SWIDTH 596 0
DWIDTH 7 0
BBX 7 9 0 0
BITMAP
18
18
00
7E
7E
CE
EE
7E
36
ENDCHAR
STARTCHAR ae
ENCODING 230
SWIDTH 910 0
DWIDTH 11 0
BBX 11 6 0 0
BITMAP
7FC0
FEE0
0FE0
FE00
CFC0
7BC0
ENDCHAR
STARTCHAR ccedilla
ENCODING 231
SWIDTH 524 0
DWIDTH 6 0
BBX 6 8 0 -2
BITMAP
7C
7C
E0
E8
7C
38
38
38
ENDCHAR
STARTCHAR egrave
ENCODING 232
SWIDTH 573 0
DWIDTH 7 0
BBX 7 9 0 0
BITMAP
38
38
00
7C
6E
FE
FC
7C
3C
ENDCHAR
STARTCHAR eacute
ENCODING 233
SWIDTH 573 0
DWIDTH 7 0
BBX 7 9 0 0
BITMAP
3C
38
00
7C
6E
FE
FC
7C
3C
ENDCHAR
STARTCHAR ecircumflex
ENCODING 234
SWIDTH 573 0
DWIDTH 7 0
BBX 7 9 0 0
BITMAP
7C
6C
00
7C
6E
FE
FC
7C
3C
ENDCHAR
STARTCHAR edieresis
ENCODING 235
SWIDTH 573 0
DWIDTH 7 0
BBX 7 9 0 0
BITMAP
6C
6C
00
7C
6E
FE
FC
7C
3C
ENDCHAR
STARTCHAR igrave
ENCODING 236
SWIDTH 255 0
DWIDTH 3 0
BBX 4 9 -1 0
BITMAP
F0
70
00
70
70
70
70
70
30
ENDCHAR
STARTCHAR iacute
ENCODING 237
SWIDTH 255 0
DWIDTH 3 0
BBX 4 9 0 0
BITMAP
F0
E0
00
E0
E0
E0
E0
E0
60
ENDCHAR
STARTCHAR icircumflex
ENCODING 238
SWIDTH 255 0
DWIDTH 3 0
BBX 5 9 -1 0
BITMAP
F8
D8
00
70
70
70
70
70
30
ENDCHAR
STARTCHAR idieresis
ENCODING 239
SWIDTH 255 0
DWIDTH 3 0
BBX 5 9 -1 0
BITMAP
D8
D8
00
70
70
70
70
70
30
ENDCHAR
STARTCHAR eth
ENCODING 240
SWIDTH 585 0
DWIDTH 7 0
BBX 7 10 0 0
BITMAP
08
30
38
2C
3C
7E
C6
C6
7C
38
ENDCHAR
STARTCHAR ntilde
ENCODING 241
SWIDTH 606 0
DWIDTH 7 0
BBX 7 9 0 0
BITMAP
3C
78
00
FC
FE
E6
E6
E6
66
ENDCHAR
STARTCHAR ograve
ENCODING 242
SWIDTH 600 0
DWIDTH 7 0
BBX 7 9 0 0
BITMAP
38
38
00
7C
7E
C6
E6
7C
3C
ENDCHAR
STARTCHAR oacute
ENCODING 243
SWIDTH 600 0
DWIDTH 7 0
BBX 7 9 0 0
BITMAP
3C
38
00
7C
7E
C6
E6
7C
3C
ENDCHAR
STARTCHAR ocircumflex
ENCODING 244
SWIDTH 600 0
DWIDTH 7 0
BBX 7 9 0 0
BITMAP
7C
6C
00
7C
7E
C6
E6
7C
3C
ENDCHAR
STARTCHAR otilde
ENCODING 245
SWIDTH 600 0
DWIDTH 7 0
BBX 7 9 0 0
BITMAP
7C
78
00
7C
7E
C6
E6
7C
3C
ENDCHAR
STARTCHAR odieresis
ENCODING 246
SWIDTH 600 0
DWIDTH 7 0
BBX 7 9 0 0
BITMAP
6C
6C
00
7C
7E
C6
E6
7C
3C
ENDCHAR
STARTCHAR divide
ENCODING 247
SWIDTH 503 0
DWIDTH 6 0
BBX 6 7 0 0
BITMAP
20
30
00
FC
78
30
30
ENDCHAR
STARTCHAR oslash
ENCODING 248
SWIDTH 600 0
DWIDTH 7 0
BBX 7 10 0 -2
BITMAP
06
0C
7C
7E
C6
E6
7C
7C
60
40
ENDCHAR
STARTCHAR ugrave
ENCODING 249
SWIDTH 606 0
DWIDTH 7 0
BBX 7 9 0 0
BITMAP
38
38
00
E6
E6
E6
6E
7E
36
ENDCHAR
STARTCHAR uacute
ENCODING 250
SWIDTH 606 0
DWIDTH 7 0
BBX 7 9 0 0
BITMAP
1C
38
00
E6
E6
E6
6E
7E
36
ENDCHAR
STARTCHAR ucircumflex
ENCODING 251
SWIDTH 606 0
DWIDTH 7 0
BBX 7 9 0 0
BITMAP
7C
7C
00
E6
E6
E6
6E
7E
36
ENDCHAR
STARTCHAR udieresis
ENCODING 252
SWIDTH 606 0
DWIDTH 7 0
BBX 7 9 0 0
BITMAP
6C
6C
00
E6
E6
E6
6E
7E
36
ENDCHAR
STARTCHAR yacute
ENCODING 253
SWIDTH 604 0
DWIDTH 7 0
BBX 7 12 0 -3
BITMAP
1C
38
00
C6
6E
7C
3C
38
18
30
30
30
ENDCHAR
STARTCHAR thorn
ENCODING 254
SWIDTH 580 0
DWIDTH 7 0
BBX 7 12 0 -3
BITMAP
C0
C0
C0
FC
FC
E6
EE
FC
F8
C0
C0
40
ENDCHAR
STARTCHAR ydieresis
ENCODING 255
SWIDTH 604 0
DWIDTH 7 0
BBX 7 12 0 -3
BITMAP
6C
6C
00
C6
6E
7C
3C
38
18
30
30
30
ENDCHAR
STARTCHAR dotlessi
ENCODING 305
SWIDTH 255 0
DWIDTH 3 0
BBX 3 6 0 0
BITMAP
E0
E0
E0
E0
E0
60
ENDCHAR
STARTCHAR Lslash
ENCODING 321
SWIDTH 687 0
DWIDTH 8 0
BBX 8 9 0 0
BITMAP
30
30
30
3C
F8
70
30
3F
3F
ENDCHAR
STARTCHAR lslash
ENCODING 322
SWIDTH 468 0
DWIDTH 6 0
BBX 5 9 0 0
BITMAP
30
30
30
38
F8
F0
30
38
38
ENDCHAR
STARTCHAR OE
ENCODING 338
SWIDTH 1092 0
DWIDTH 13 0
BBX 13 9 0 0
BITMAP
1FF8
3FF8
7300
E300
C3E0
E3E0
6300
7FF8
1FF8
ENDCHAR
STARTCHAR oe
ENCODING 339
SWIDTH 944 0
DWIDTH 11 0
BBX 11 6 0 0
BITMAP
7FC0
7F60
C7E0
E600
7FE0
3FE0
ENDCHAR
STARTCHAR Scaron
ENCODING 352
SWIDTH 583 0
DWIDTH 7 0
BBX 7 12 0 0
BITMAP
28
7C
10
38
7C
E4
60
7C
1E
46
FC
7C
ENDCHAR
STARTCHAR scaron
ENCODING 353
SWIDTH 489 0
DWIDTH 6 0
BBX 6 9 0 0
BITMAP
F8
70
00
78
48
78
3C
FC
78
ENDCHAR
STARTCHAR Ydieresis
ENCODING 376
SWIDTH 686 0
DWIDTH 8 0
BBX 8 12 0 0
BITMAP
26
76
00
43
E7
66
3E
3C
18
18
18
18
ENDCHAR
STARTCHAR Zcaron
ENCODING 381
SWIDTH 643 0
DWIDTH 8 0
BBX 7 12 0 0
BITMAP
24
7C
10
FE
FE
0E
1C
18
30
70
FE
FE
ENDCHAR
STARTCHAR zcaron
ENCODING 382
SWIDTH 586 0
DWIDTH 7 0
BBX 7 9 0 0
BITMAP
7C
38
00
7E
7C
18
70
FE
FE
ENDCHAR
STARTCHAR florin
ENCODING 402
SWIDTH 529 0
DWIDTH 6 0
BBX 6 12 0 -3
BITMAP
0C
1C
38
7C
7C
30
30
30
30
30
E0
C0
ENDCHAR
STARTCHAR circumflex
ENCODING 710
SWIDTH 603 0
DWIDTH 7 0
BBX 5 2 1 7
BITMAP
F8
D8
ENDCHAR
STARTCHAR caron
ENCODING 711
SWIDTH 600 0
DWIDTH 7 0
BBX 5 2 1 7
BITMAP
F8
70
ENDCHAR
STARTCHAR dotaccent
ENCODING 729
SWIDTH 285 0
DWIDTH 3 0
BBX 2 3 1 8
BITMAP
80
C0
80
ENDCHAR
STARTCHAR ring
ENCODING 730
SWIDTH 378 0
DWIDTH 5 0
BBX 3 3 1 8
BITMAP
C0
A0
C0
ENDCHAR
STARTCHAR ogonek
ENCODING 731
SWIDTH 570 0
DWIDTH 7 0
BBX 2 2 2 -2
BITMAP
C0
C0
ENDCHAR
STARTCHAR tilde
ENCODING 732
SWIDTH 584 0
DWIDTH 7 0
BBX 5 2 1 7
BITMAP
F8
B0
ENDCHAR
STARTCHAR endash
ENCODING 8211
SWIDTH 561 0
DWIDTH 7 0
BBX 7 2 0 2
BITMAP
FE
FC
ENDCHAR
STARTCHAR emdash
ENCODING 8212
SWIDTH 693 0
DWIDTH 8 0
BBX 8 2 0 2
BITMAP
FF
FF
ENDCHAR
STARTCHAR quoteleft
ENCODING 8216
SWIDTH 237 0
DWIDTH 3 0
BBX 3 4 0 5
BITMAP
60
40
C0
E0
ENDCHAR
STARTCHAR quoteright
ENCODING 8217
SWIDTH 237 0
DWIDTH 3 0
BBX 3 4 0 5
BITMAP
C0
E0
40
C0
ENDCHAR
STARTCHAR quotesinglbase
ENCODING 8218
SWIDTH 237 0
DWIDTH 3 0
BBX 3 4 0 -2
BITMAP
E0
E0
40
C0
ENDCHAR
STARTCHAR quotedblleft
ENCODING 8220
SWIDTH 482 0
DWIDTH 6 0
BBX 5 4 0 5
BITMAP
68
48
D8
F8
ENDCHAR
STARTCHAR quotedblright
ENCODING 8221
SWIDTH 482 0
DWIDTH 6 0
BBX 5 4 0 5
BITMAP
D8
F8
48
D8
ENDCHAR
STARTCHAR quotedblbase
ENCODING 8222
SWIDTH 482 0
DWIDTH 6 0
BBX 5 4 0 -2
BITMAP
F8
F8
48
D8
ENDCHAR
STARTCHAR dagger
ENCODING 8224
SWIDTH 527 0
DWIDTH 6 0
BBX 6 11 0 -2
BITMAP
30
30
30
FC
FC
30
30
30
30
30
30
ENDCHAR
STARTCHAR daggerdbl
ENCODING 8225
SWIDTH 527 0
DWIDTH 6 0
BBX 6 11 0 -2
BITMAP
30
30
30
FC
FC
30
30
FC
30
30
30
ENDCHAR
STARTCHAR bullet
ENCODING 8226
SWIDTH 342 0
DWIDTH 4 0
BBX 4 4 0 2
BITMAP
20
F0
F0
60
ENDCHAR
STARTCHAR ellipsis
ENCODING 8230
SWIDTH 911 0
DWIDTH 11 0
BBX 11 2 0 0
BITMAP
EEE0
CEE0
ENDCHAR
STARTCHAR perthousand
ENCODING 8240
SWIDTH 1223 0
DWIDTH 15 0
BBX 14 9 0 0
BITMAP
7100
7200
DE00
7400
2C00
0BBC
1AE4
12F4
239C
ENDCHAR
STARTCHAR guilsinglleft
ENCODING 8249
SWIDTH 383 0
DWIDTH 5 0
BBX 4 6 0 0
BITMAP
30
70
E0
E0
30
10
ENDCHAR
STARTCHAR guilsinglright
ENCODING 8250
SWIDTH 383 0
DWIDTH 5 0
BBX 4 6 0 0
BITMAP
C0
60
30
70
E0
C0
ENDCHAR
STARTCHAR fraction
ENCODING 8260
SWIDTH 433 0
DWIDTH 5 0
BBX 6 9 0 0
BITMAP
04
0C
08
10
10
20
20
40
C0
ENDCHAR
STARTCHAR Euro
ENCODING 8364
SWIDTH 612 0
DWIDTH 7 0
BBX 7 9 0 0
BITMAP
3E
3E
70
FC
60
FC
70
3E
1E
ENDCHAR
STARTCHAR trademark
ENCODING 8482
SWIDTH 840 0
DWIDTH 10 0
BBX 10 5 0 3
BITMAP
F480
FEC0
27C0
27C0
24C0
ENDCHAR
STARTCHAR minus
ENCODING 8722
SWIDTH 581 0
DWIDTH 7 0
BBX 7 2 0 2
BITMAP
FE
7C
ENDCHAR
STARTCHAR f_f
ENCODING 64256
SWIDTH 803 0
DWIDTH 10 0
BBX 9 9 0 0
BITMAP
3B80
7B80
6300
FF80
FF80
6300
6300
6300
6300
ENDCHAR
STARTCHAR fi
ENCODING 64257
SWIDTH 709 0
DWIDTH 9 0
BBX 8 9 0 0
BITMAP
3B
7B
60
FB
FB
63
63
63
63
ENDCHAR
STARTCHAR fl
ENCODING 64258
SWIDTH 774 0
DWIDTH 9 0
BBX 9 9 0 0
BITMAP
3B00
7B00
6300
FB00
FB00
6300
6300
6380
6380
ENDCHAR
STARTCHAR f_f_i
ENCODING 64259
SWIDTH 1059 0
DWIDTH 13 0
BBX 12 9 0 0
BITMAP
3BB0
7BB0
6300
FFB0
FFB0
6330
6330
6330
6330
ENDCHAR
STARTCHAR .notdef
ENCODING -1
SWIDTH 500 0
DWIDTH 6 0
BBX 1 1 0 0
BITMAP
00
ENDCHAR
STARTCHAR .null
ENCODING -1
SWIDTH 0 0
DWIDTH 0 0
BBX 1 1 0 0
BITMAP
00
ENDCHAR
STARTCHAR nonmarkingreturn
ENCODING -1
SWIDTH 333 0
DWIDTH 4 0
BBX 1 1 0 0
BITMAP
00
ENDCHAR
STARTCHAR f_t
ENCODING -1
SWIDTH 814 0
DWIDTH 10 0
BBX 10 9 0 0
BITMAP
3800
7B00
6300
FFC0
FF80
6300
6300
6380
6180
ENDCHAR
STARTCHAR t_t
ENCODING -1
SWIDTH 794 0
DWIDTH 10 0
BBX 9 8 0 0
BITMAP
6700
6700
FF80
FF80
6700
6700
7B80
3B80
ENDCHAR
STARTCHAR l_l
ENCODING -1
SWIDTH 626 0
DWIDTH 8 0
BBX 7 9 0 0
BITMAP
EC
EC
EC
EC
EC
EC
EC
6E
66
ENDCHAR
STARTCHAR j_j
ENCODING -1
SWIDTH 521 0
DWIDTH 6 0
BBX 8 12 -2 -3
BITMAP
3B
13
00
3B
3B
3B
3B
3B
3B
33
FE
66
ENDCHAR
ENDFONT
